#N canvas 830 463 156 236 10;
#X obj 0 50 osc~ 440;
#X obj 33 75 receive volume;
#X obj 0 207 dac~;
#X obj -1 5 dbm-connect;
#X obj 33 127 line~;
#X msg 33 101 \$1 20;
#X obj 0 160 *~;
#X connect 0 0 6 0;
#X connect 1 0 5 0;
#X connect 4 0 6 1;
#X connect 5 0 4 0;
#X connect 6 0 2 0;
#X connect 6 0 2 1;
