#N canvas 563 124 163 264 10;
#X declare -path dbm;
#X obj 4 75 osc~ 440;
#X obj 37 100 receive volume;
#X obj 4 232 dac~;
#X obj 3 30 dbm-connect;
#X obj 37 152 line~;
#X msg 37 126 \$1 20;
#X obj 4 185 *~;
#X obj 3 7 declare -path dbm;
#X connect 0 0 6 0;
#X connect 1 0 5 0;
#X connect 4 0 6 1;
#X connect 5 0 4 0;
#X connect 6 0 2 0;
#X connect 6 0 2 1;
